<svg xmlns="http://www.w3.org/2000/svg" width="128" height="128" viewBox="0 0 128 128">
  <defs>
    <linearGradient id="gradient" x1="0%" y1="0%" x2="100%" y2="100%">
      <stop offset="0%" stop-color="#2979FF" />
      <stop offset="100%" stop-color="#1E88E5" />
    </linearGradient>
  </defs>
  <rect width="128" height="128" rx="20" fill="url(#gradient)"/>
  <g fill="#ffffff">
    <!-- 左侧JSON花括号 -->
    <path d="M40,30 C35,30 32,35 32,40 L32,48 C32,53 28,55 24,56 C28,57 32,59 32,64 L32,72 C32,77 35,82 40,82 M40,30 L36,30 M40,82 L36,82" stroke="#ffffff" stroke-width="4" fill="none"/>
    <!-- 右侧JSON花括号 -->
    <path d="M88,30 C93,30 96,35 96,40 L96,48 C96,53 100,55 104,56 C100,57 96,59 96,64 L96,72 C96,77 93,82 88,82 M88,30 L92,30 M88,82 L92,82" stroke="#ffffff" stroke-width="4" fill="none"/>
    <!-- 合并箭头 -->
    <path d="M64,36 L64,76 M55,66 L64,76 L73,66" stroke="#ffffff" stroke-width="4" fill="none"/>
    <!-- MCP字母 -->
    <text x="64" y="108" font-family="Arial, sans-serif" font-size="14" font-weight="bold" text-anchor="middle" fill="#ffffff">MCP MERGE</text>
  </g>
</svg> 