<svg xmlns="http://www.w3.org/2000/svg" width="16" height="16" viewBox="0 0 16 16">
  <defs>
    <linearGradient id="menu-gradient" x1="0%" y1="0%" x2="100%" y2="100%">
      <stop offset="0%" stop-color="#2979FF" />
      <stop offset="100%" stop-color="#1E88E5" />
    </linearGradient>
  </defs>
  <rect width="16" height="16" rx="3" fill="url(#menu-gradient)"/>
  <g fill="#ffffff">
    <!-- 左侧JSON花括号简化版 -->
    <path d="M5,3.5 C4.5,3.5 4,4 4,4.5 L4,6 C4,6.5 3.5,7 3,7 C3.5,7 4,7.5 4,8 L4,9.5 C4,10 4.5,10.5 5,10.5" stroke="#ffffff" stroke-width="0.7" fill="none"/>
    <!-- 右侧JSON花括号简化版 -->
    <path d="M11,3.5 C11.5,3.5 12,4 12,4.5 L12,6 C12,6.5 12.5,7 13,7 C12.5,7 12,7.5 12,8 L12,9.5 C12,10 11.5,10.5 11,10.5" stroke="#ffffff" stroke-width="0.7" fill="none"/>
    <!-- 合并箭头简化版 -->
    <path d="M8,4.5 L8,9.5 M6.5,8 L8,9.5 L9.5,8" stroke="#ffffff" stroke-width="0.7" fill="none"/>
    <!-- MCP字母简化版 -->
    <text x="8" y="13.5" font-family="Arial, sans-serif" font-size="2" font-weight="bold" text-anchor="middle" fill="#ffffff">MCP</text>
  </g>
</svg> 